<?xml version="1.0" encoding="UTF-8"?>
<svg width="600px" height="600px" viewBox="0 0 600 600" version="1.1" xmlns="http://www.w3.org/2000/svg" xmlns:xlink="http://www.w3.org/1999/xlink">
    <!-- Generator: Sketch 63.1 (92452) - https://sketch.com -->
    <title>Combined Shape</title>
    <desc>Created with Sketch.</desc>
    <g id="Page-1" stroke="none" stroke-width="1" fill="none" fill-rule="evenodd">
        <path d="M300,0 C465.685425,0 600,134.314575 600,300 C600,465.685425 465.685425,600 300,600 C134.314575,600 0,465.685425 0,300 C0,134.314575 134.314575,0 300,0 Z M264.732724,437.347782 C259.947174,437.287718 255.557187,439.822278 253.216429,443.996718 L253.216429,443.996718 L223.061014,497.775005 C220.720256,501.949445 220.784343,507.129568 223.229135,511.364071 C225.673927,515.598575 230.128001,518.244138 234.913552,518.304202 L234.913552,518.304202 L296.564621,519.07799 C301.350171,519.138054 305.740158,516.603494 308.080916,512.429054 C310.421674,508.254614 310.357587,503.074491 307.912795,498.839987 L307.912795,498.839987 L276.41714,444.287913 C273.972348,440.053409 269.518274,437.407846 264.732724,437.347782 Z M301.976737,417.221968 C297.191187,417.161904 292.8012,419.696465 290.460441,423.870904 C288.119683,428.045344 288.183771,433.225467 290.628562,437.459971 L290.628562,437.459971 L322.124218,492.012046 C324.569009,496.24655 329.023084,498.892112 333.808634,498.952176 C338.594184,499.01224 342.984171,496.47768 345.324929,492.30324 L345.324929,492.30324 L375.480343,438.524954 C377.821102,434.350514 377.757014,429.170391 375.312222,424.935887 C372.86743,420.701383 368.413356,418.05582 363.627806,417.995757 C332.802271,417.608862 332.802271,417.608862 301.976737,417.221968 Z M482.142877,391.270973 L419.151567,391.270973 C414.261983,391.270973 409.743821,393.805533 407.299029,397.919909 C404.854237,402.034285 404.854237,407.103405 407.299029,411.217781 L407.299029,411.217781 L438.794684,464.222279 C441.239476,468.336655 445.757638,470.871215 450.647222,470.871215 C455.536806,470.871215 460.054967,468.336655 462.499759,464.222279 L462.499759,464.222279 L493.995414,411.217781 C496.440206,407.103405 496.440206,402.034285 493.995414,397.919909 C491.550622,393.805533 487.032461,391.270973 482.142877,391.270973 L482.142877,391.270973 Z M183.95211,355.485664 C179.062526,355.485664 174.544365,358.020224 172.099573,362.1346 L172.099573,362.1346 L140.603917,415.139099 C138.159126,419.253474 138.159126,424.322595 140.603917,428.436971 C143.048709,432.551347 147.566871,435.085907 152.456455,435.085907 L152.456455,435.085907 L215.447765,435.085907 C220.337349,435.085907 224.855511,432.551347 227.300302,428.436971 C229.745094,424.322595 229.745094,419.253475 227.300302,415.139099 C211.552475,388.63685 211.552475,388.63685 195.804648,362.1346 C193.359856,358.020224 188.841694,355.485664 183.95211,355.485664 Z M147.434908,333.433483 L147.101695,333.433475 L85.4506254,334.207264 C80.6650753,334.267327 76.2110009,336.91289 73.7662091,341.147394 C71.3214171,345.381898 71.2573298,350.562021 73.5980879,354.736461 L73.5980879,354.736461 L103.753502,408.514747 C106.094261,412.689187 110.484247,415.223747 115.269798,415.163683 C120.055348,415.103619 124.509422,412.458057 126.954214,408.223553 L126.954214,408.223553 L158.449869,353.671478 C160.894661,349.436974 160.958748,344.256851 158.61799,340.082411 C156.277232,335.907972 151.887245,333.373411 147.101695,333.433475 Z M282.66965,333.185126 L282.336437,333.185119 L220.685367,333.958907 C215.899817,334.018971 211.445743,336.664534 209.000951,340.899038 C206.556159,345.133541 206.492072,350.313664 208.83283,354.488104 L208.83283,354.488104 L238.988244,408.266391 C241.329002,412.440831 245.718989,414.975391 250.504539,414.915327 C255.290089,414.855263 259.744164,412.2097 262.188956,407.975196 L262.188956,407.975196 L293.684611,353.423122 C296.129403,349.188618 296.19349,344.008495 293.852732,339.834055 C291.511974,335.659615 287.121987,333.125055 282.336437,333.185119 Z M332.72294,323.046107 C327.93739,322.986043 323.547403,325.520603 321.206645,329.695043 L321.206645,329.695043 L291.05123,383.473329 C288.710472,387.647769 288.77456,392.827892 291.219351,397.062396 C293.664143,401.2969 298.118218,403.942462 302.903768,404.002526 L302.903768,404.002526 L364.554837,404.776315 C369.340387,404.836378 373.730374,402.301818 376.071133,398.127378 C378.411891,393.952938 378.347803,388.772816 375.903011,384.538312 L375.903011,384.538312 L344.407356,329.986237 C341.962565,325.751733 337.50849,323.106171 332.72294,323.046107 Z M451.187562,297.179854 C446.297978,297.179854 441.779817,299.714414 439.335025,303.82879 C423.587197,330.331039 423.587197,330.331039 407.83937,356.833288 C405.394578,360.947664 405.394578,366.016785 407.83937,370.13116 C410.284161,374.245536 414.802323,376.780097 419.691907,376.780097 L419.691907,376.780097 L482.683217,376.780097 C487.5728,376.780097 492.090963,374.245536 494.535755,370.13116 C496.980547,366.016785 496.980547,360.947664 494.535755,356.833288 L494.535755,356.833288 L463.040099,303.82879 C460.595307,299.714414 456.077146,297.179854 451.187562,297.179854 Z M414.304143,277.600889 L351.312833,277.600889 C346.423249,277.600889 341.905088,280.135449 339.460296,284.249825 C337.015504,288.364202 337.015504,293.433322 339.460296,297.547698 L339.460296,297.547698 L370.955951,350.552196 C373.400743,354.666572 377.918904,357.201132 382.808488,357.201132 C387.698072,357.201132 392.216234,354.666572 394.661026,350.552196 L394.661026,350.552196 L426.156681,297.547698 C428.601473,293.433322 428.601473,288.364202 426.156681,284.249825 C423.711889,280.135449 419.193727,277.600889 414.304143,277.600889 L414.304143,277.600889 Z M216.897115,243.262411 C212.007531,243.262411 207.489369,245.796971 205.044577,249.911348 L205.044577,249.911348 L173.548922,302.915846 C171.10413,307.030222 171.10413,312.099342 173.548922,316.213718 C175.993714,320.328094 180.511876,322.862654 185.40146,322.862654 L185.40146,322.862654 L248.39277,322.862654 C253.282354,322.862654 257.800515,320.328094 260.245307,316.213718 C262.690099,312.099342 262.690099,307.030222 260.245307,302.915846 L260.245307,302.915846 L228.749652,249.911348 C226.30486,245.796971 221.786699,243.262411 216.897115,243.262411 Z M180.474453,222.172807 L117.483143,222.172807 C112.593559,222.172807 108.075397,224.707367 105.630605,228.821743 C103.185813,232.936119 103.185813,238.005239 105.630605,242.119615 L105.630605,242.119615 L137.12626,295.124113 C139.571052,299.238489 144.089214,301.77305 148.978798,301.77305 C153.868381,301.77305 158.386543,299.238489 160.831335,295.124113 C176.579162,268.621864 176.579162,268.621864 192.32699,242.119615 C194.771782,238.005239 194.771782,232.936119 192.32699,228.821743 C189.882198,224.707367 185.364036,222.172807 180.474453,222.172807 L180.474453,222.172807 Z M236.359038,193.945205 C231.573488,193.885141 227.183501,196.419701 224.842742,200.594141 C222.501984,204.768581 222.566072,209.948704 225.010864,214.183208 L225.010864,214.183208 L256.506519,268.735282 C258.95131,272.969786 263.405385,275.615349 268.190935,275.675413 C272.976485,275.735477 277.366472,273.200917 279.70723,269.026477 L279.70723,269.026477 L309.862645,215.24819 C312.203403,211.07375 312.139315,205.893627 309.694524,201.659124 C307.249732,197.42462 302.795657,194.779057 298.010107,194.718993 L298.010107,194.718993 Z M485.066855,184.49304 L484.733642,184.493033 C479.948092,184.553097 475.494018,187.19866 473.049226,191.433164 L473.049226,191.433164 L441.553571,245.985238 C439.108779,250.219742 439.044692,255.399865 441.38545,259.574305 C443.726208,263.748745 448.116195,266.283305 452.901745,266.223241 L452.901745,266.223241 L514.552814,265.449453 C519.338364,265.389389 523.792439,262.743826 526.237231,258.509322 C528.682023,254.274818 528.74611,249.094696 526.405352,244.920256 L526.405352,244.920256 L496.249937,191.141969 C493.909179,186.967529 489.519192,184.432969 484.733642,184.493033 Z M349.193427,184.433014 L348.860214,184.433006 C344.074664,184.49307 339.62059,187.138633 337.175798,191.373137 L337.175798,191.373137 L305.680143,245.925212 C303.235351,250.159715 303.171264,255.339838 305.512022,259.514278 C307.85278,263.688718 312.242767,266.223278 317.028317,266.163214 L317.028317,266.163214 L378.679386,265.389426 C383.464937,265.329362 387.919011,262.683799 390.363803,258.449296 C392.808595,254.214792 392.872682,249.034669 390.531924,244.860229 L390.531924,244.860229 L360.37651,191.081943 C358.035751,186.907503 353.645764,184.372943 348.860214,184.433006 Z M447.857948,164.351255 L447.524735,164.351247 L385.873666,165.125036 C381.088115,165.1851 376.634041,167.830662 374.189249,172.065166 C371.744457,176.29967 371.68037,181.479793 374.021128,185.654233 C389.098835,212.543376 389.098835,212.543376 404.176542,239.432519 C406.517301,243.606959 410.907288,246.141519 415.692838,246.081455 C420.478388,246.021391 424.932462,243.375829 427.377254,239.141325 L427.377254,239.141325 L458.872909,184.58925 C461.317701,180.354746 461.381788,175.174624 459.04103,171.000184 C456.700272,166.825744 452.310285,164.291184 447.524735,164.351247 Z M149.013903,128.900709 C144.124319,128.900709 139.606158,131.435269 137.161366,135.549645 L137.161366,135.549645 L105.665711,188.554144 C103.220919,192.66852 103.220919,197.73764 105.665711,201.852016 C108.110503,205.966392 112.628664,208.500952 117.518248,208.500952 L117.518248,208.500952 L180.509558,208.500952 C185.399142,208.500952 189.917304,205.966392 192.362096,201.852016 C194.806888,197.73764 194.806888,192.66852 192.362096,188.554144 L192.362096,188.554144 L160.866441,135.549645 C158.421649,131.435269 153.903487,128.900709 149.013903,128.900709 Z M265.574122,101.634424 C260.684538,101.634424 256.166376,104.168984 253.721584,108.28336 L253.721584,108.28336 L222.225929,161.287859 C219.781137,165.402234 219.781137,170.471355 222.225929,174.585731 C224.670721,178.700106 229.188883,181.234667 234.078467,181.234667 L234.078467,181.234667 L297.069777,181.234667 C301.95936,181.234666 306.477522,178.700106 308.922314,174.585731 C311.367106,170.471355 311.367106,165.402234 308.922314,161.287858 L308.922314,161.287858 L277.426659,108.28336 C274.981867,104.168984 270.463706,101.634424 265.574122,101.634424 Z M302.964877,80.4700277 C298.179327,80.4099638 293.78934,82.9445239 291.448582,87.1189638 C289.107824,91.2934037 289.171911,96.4735267 291.616703,100.70803 L291.616703,100.70803 L323.112358,155.260105 C325.55715,159.494609 330.011224,162.140172 334.796774,162.200236 C339.582325,162.260299 343.972311,159.725739 346.31307,155.551299 L346.31307,155.551299 L376.468484,101.773013 C378.809242,97.5985731 378.745155,92.4184501 376.300363,88.1839464 C373.855571,83.9494426 369.401497,81.3038799 364.615947,81.2438159 L364.615947,81.2438159 Z" id="Combined-Shape" fill="#FFFFFF"></path>
    </g>
</svg>